<svg width="40" height="40" viewBox="0 0 40 40" fill="none" xmlns="http://www.w3.org/2000/svg">
<g id="Icon/Outline/arrow-ios-left">
<path id="Mask" fill-rule="evenodd" clip-rule="evenodd" d="M16.9523 31.6667C17.439 31.6667 17.9223 31.455 18.2523 31.045L26.299 21.045C26.7956 20.4267 26.789 19.5433 26.2806 18.9333L17.9473 8.93333C17.359 8.22666 16.3073 8.13166 15.599 8.71999C14.8923 9.30833 14.7973 10.36 15.3873 11.0667L22.8456 20.0183L15.654 28.955C15.0773 29.6717 15.1906 30.7217 15.909 31.2983C16.2156 31.5467 16.5856 31.6667 16.9523 31.6667Z" fill="black"/>
<mask id="mask0_1_534" style="mask-type:alpha" maskUnits="userSpaceOnUse" x="15" y="8" width="12" height="24">
<path id="Mask_2" fill-rule="evenodd" clip-rule="evenodd" d="M16.9523 31.6667C17.439 31.6667 17.9223 31.455 18.2523 31.045L26.299 21.045C26.7956 20.4267 26.789 19.5433 26.2806 18.9333L17.9473 8.93333C17.359 8.22666 16.3073 8.13166 15.599 8.71999C14.8923 9.30833 14.7973 10.36 15.3873 11.0667L22.8456 20.0183L15.654 28.955C15.0773 29.6717 15.1906 30.7217 15.909 31.2983C16.2156 31.5467 16.5856 31.6667 16.9523 31.6667Z" fill="white"/>
</mask>
<g mask="url(#mask0_1_534)">
<g id="&#240;&#159;&#142;&#168; Color">
<rect id="Base" width="40" height="40" transform="matrix(-1 0 0 1 40 0)" fill="black"/>
</g>
</g>
</g>
</svg>
