<svg width="30" height="30" viewBox="0 0 30 30" fill="none" xmlns="http://www.w3.org/2000/svg">
<g id="Icon/Outline/trash">
<path id="Mask" fill-rule="evenodd" clip-rule="evenodd" d="M22.5 23.75C22.5 24.4387 21.94 25 21.25 25H8.75C8.06 25 7.5 24.4387 7.5 23.75V10H22.5V23.75ZM12.5 5.41C12.5 5.21625 12.7675 5 13.125 5H16.875C17.2325 5 17.5 5.21625 17.5 5.41V7.5H12.5V5.41ZM26.25 7.5H25H20V5.41C20 3.805 18.5987 2.5 16.875 2.5H13.125C11.4012 2.5 10 3.805 10 5.41V7.5H5H3.75C3.0625 7.5 2.5 8.0625 2.5 8.75C2.5 9.4375 3.0625 10 3.75 10H5V23.75C5 25.8175 6.6825 27.5 8.75 27.5H21.25C23.3175 27.5 25 25.8175 25 23.75V10H26.25C26.9375 10 27.5 9.4375 27.5 8.75C27.5 8.0625 26.9375 7.5 26.25 7.5Z" fill="black"/>
<mask id="mask0_1_450" style="mask-type:alpha" maskUnits="userSpaceOnUse" x="2" y="2" width="26" height="26">
<path id="Mask_2" fill-rule="evenodd" clip-rule="evenodd" d="M22.5 23.75C22.5 24.4387 21.94 25 21.25 25H8.75C8.06 25 7.5 24.4387 7.5 23.75V10H22.5V23.75ZM12.5 5.41C12.5 5.21625 12.7675 5 13.125 5H16.875C17.2325 5 17.5 5.21625 17.5 5.41V7.5H12.5V5.41ZM26.25 7.5H25H20V5.41C20 3.805 18.5987 2.5 16.875 2.5H13.125C11.4012 2.5 10 3.805 10 5.41V7.5H5H3.75C3.0625 7.5 2.5 8.0625 2.5 8.75C2.5 9.4375 3.0625 10 3.75 10H5V23.75C5 25.8175 6.6825 27.5 8.75 27.5H21.25C23.3175 27.5 25 25.8175 25 23.75V10H26.25C26.9375 10 27.5 9.4375 27.5 8.75C27.5 8.0625 26.9375 7.5 26.25 7.5Z" fill="white"/>
</mask>
<g mask="url(#mask0_1_450)">
<g id="&#240;&#159;&#142;&#168; Color">
<rect id="Base" width="30" height="30" fill="black"/>
</g>
</g>
</g>
</svg>
